<svg xmlns="http://www.w3.org/2000/svg" width="512" height="512" viewBox="0 0 512 512" version="1.1">
    <path
        d="M 209.750 140.080 L 102 194.002 102 255.500 L 102 316.998 209.750 370.874 L 317.500 424.749 363.750 401.630 L 410 378.510 410 370.493 L 410 362.476 394.500 347 L 379 331.524 379 239.506 L 379 147.488 348.250 116.823 L 317.500 86.157 209.750 140.080 M 224.585 163.639 L 133.669 209.168 225.826 301.325 L 317.983 393.482 347.992 378.504 C 364.496 370.267, 378 363.297, 378 363.017 C 378 362.737, 357.432 341.937, 332.294 316.794 C 307.155 291.651, 286.793 270.886, 287.044 270.651 C 287.295 270.415, 301.185 263.384, 317.912 255.027 L 348.324 239.832 333.168 224.676 L 318.012 209.520 287.006 224.997 L 255.999 240.474 241 225.500 C 232.750 217.264, 226 210.183, 226 209.764 C 226 209.346, 253.521 195.241, 287.157 178.421 L 348.315 147.839 333.420 132.920 C 325.228 124.714, 317.844 118.025, 317.013 118.055 C 316.181 118.085, 274.588 138.598, 224.585 163.639"
        stroke="none" fill="#000000" fill-rule="evenodd" />
    <path
        d="M 224.585 163.639 L 133.669 209.168 225.826 301.325 L 317.983 393.482 347.992 378.504 C 364.496 370.267, 378 363.297, 378 363.017 C 378 362.737, 357.432 341.937, 332.294 316.794 C 307.155 291.651, 286.793 270.886, 287.044 270.651 C 287.295 270.415, 301.185 263.384, 317.912 255.027 L 348.324 239.832 333.168 224.676 L 318.012 209.520 287.006 224.997 L 255.999 240.474 241 225.500 C 232.750 217.264, 226 210.183, 226 209.764 C 226 209.346, 253.521 195.241, 287.157 178.421 L 348.315 147.839 333.420 132.920 C 325.228 124.714, 317.844 118.025, 317.013 118.055 C 316.181 118.085, 274.588 138.598, 224.585 163.639"
        stroke="none" fill="#FFFFFF" fill-rule="evenodd" />
</svg>